<?xml version="1.0" encoding="UTF-8"?>
<svg id="_图层_1" data-name="图层_1" xmlns="http://www.w3.org/2000/svg" version="1.1" viewBox="0 0 512 512">
  <!-- Generator: Adobe Illustrator 29.1.0, SVG Export Plug-In . SVG Version: 2.1.0 Build 142)  -->
  <defs>
    <style>
      .st0 {
        fill: #fff;
      }
    </style>
  </defs>
  <path class="st0" d="M48,64C21.5,64,0,85.5,0,112s7.1,29.3,19.2,38.4l217.6,163.2c11.4,8.5,27,8.5,38.4,0l217.6-163.2c12.1-9.1,19.2-23.3,19.2-38.4,0-26.5-21.5-48-48-48H48ZM0,176v208c0,35.3,28.7,64,64,64h384c35.3,0,64-28.7,64-64v-208l-217.6,163.2c-22.8,17.1-54,17.1-76.8,0L0,176Z"/>
</svg>