<?xml version="1.0" encoding="UTF-8"?>
<svg id="_图层_1" xmlns="http://www.w3.org/2000/svg" version="1.1" viewBox="0 0 512 512">
  <!-- Generator: Adobe Illustrator 29.1.0, SVG Export Plug-In . SVG Version: 2.1.0 Build 142)  -->
  <defs>
    <style>
      .st0 {
        fill: #fff;
        stroke: #000;
        stroke-miterlimit: 10;
      }

      .st1 {
        fill: #07b53b;
      }
    </style>
  </defs>
  <rect class="st0" x="52" y="52" width="407.9" height="407.9"/>
  <path class="st1" d="M311,196.8v81.3c0,2.1-1.6,3.7-3.7,3.7h-13c-1.3,0-2.4-.7-3-1.5l-37.3-50.3v48.2c0,2.1-1.6,3.7-3.7,3.7h-13c-2.1,0-3.7-1.6-3.7-3.7v-81.3c0-2.1,1.6-3.7,3.7-3.7h12.9c1.1,0,2.4.6,3,1.6l37.3,50.3v-48.2c0-2.1,1.6-3.7,3.7-3.7h13c2.1-.1,3.8,1.6,3.8,3.5h0ZM217.3,193.1h-13c-2.1,0-3.7,1.6-3.7,3.7v81.3c0,2.1,1.6,3.7,3.7,3.7h13c2.1,0,3.7-1.6,3.7-3.7v-81.3c0-1.9-1.6-3.7-3.7-3.7ZM185.9,261.2h-35.6v-64.4c0-2.1-1.6-3.7-3.7-3.7h-13c-2.1,0-3.7,1.6-3.7,3.7v81.3c0,1,.3,1.8,1,2.5.7.6,1.5,1,2.5,1h52.2c2.1,0,3.7-1.6,3.7-3.7v-13c0-1.9-1.6-3.7-3.5-3.7h.1ZM379.6,193.1h-52.3c-1.9,0-3.7,1.6-3.7,3.7v81.3c0,1.9,1.6,3.7,3.7,3.7h52.2c2.1,0,3.7-1.6,3.7-3.7v-13.1c0-2.1-1.6-3.7-3.7-3.7h-35.5v-13.6h35.5c2.1,0,3.7-1.6,3.7-3.7v-13.1c0-2.1-1.6-3.7-3.7-3.7h-35.5v-13.7h35.5c2.1,0,3.7-1.6,3.7-3.7v-13c-.1-1.9-1.7-3.7-3.7-3.7h.1,0ZM512,93.4v326c-.1,51.2-42.1,92.7-93.4,92.6H92.6c-51.2-.1-92.7-42.2-92.6-93.4V92.6C.1,41.4,42.2-.1,93.4,0h326c51.2.1,92.7,42.1,92.6,93.4ZM441.6,233.5c0-83.4-83.7-151.3-186.4-151.3S68.8,150.1,68.8,233.5s66.3,137.4,155.9,149.3c21.8,4.7,19.3,12.7,14.4,42.1-.8,4.7-3.8,18.4,16.1,10.1s107.3-63.2,146.5-108.2c27-29.7,39.9-59.8,39.9-93.1v-.2h0Z"/>
</svg>